<?xml version="1.0" encoding="UTF-8" standalone="no"?>
<!DOCTYPE svg PUBLIC "-//W3C//DTD SVG 1.1//EN"
 "http://www.w3.org/Graphics/SVG/1.1/DTD/svg11.dtd">
<!-- Generated by graphviz version 2.26.0 (20091210.2329)
 -->
<!-- Title: snakemake_dag Pages: 1 -->
<svg width="186pt" height="908pt"
 viewBox="0.00 0.00 186.00 908.00" xmlns="http://www.w3.org/2000/svg" xmlns:xlink="http://www.w3.org/1999/xlink">
<g id="graph1" class="graph" transform="scale(1 1) rotate(0) translate(4 904)">
<title>snakemake_dag</title>
<polygon fill="white" stroke="white" points="-4,5 -4,-904 183,-904 183,5 -4,5"/>
<!-- 0 -->
<g id="node1" class="node"><title>0</title>
<polyline fill="none" stroke="#d85656" stroke-width="2" points="135,-108 43,-108 "/>
<path fill="none" stroke="#d85656" stroke-width="2" d="M43,-108C37,-108 31,-102 31,-96"/>
<polyline fill="none" stroke="#d85656" stroke-width="2" points="31,-96 31,-84 "/>
<path fill="none" stroke="#d85656" stroke-width="2" d="M31,-84C31,-78 37,-72 43,-72"/>
<polyline fill="none" stroke="#d85656" stroke-width="2" points="43,-72 135,-72 "/>
<path fill="none" stroke="#d85656" stroke-width="2" d="M135,-72C141,-72 147,-78 147,-84"/>
<polyline fill="none" stroke="#d85656" stroke-width="2" points="147,-84 147,-96 "/>
<path fill="none" stroke="#d85656" stroke-width="2" d="M147,-96C147,-102 141,-108 135,-108"/>
<text text-anchor="middle" x="89" y="-87.5" font-family="sans" font-size="10.00">bedgraph_to_bigwig</text>
</g>
<!-- 8 -->
<g id="node9" class="node"><title>8</title>
<polyline fill="none" stroke="#56d87b" stroke-width="2" points="104,-36 74,-36 "/>
<path fill="none" stroke="#56d87b" stroke-width="2" d="M74,-36C68,-36 62,-30 62,-24"/>
<polyline fill="none" stroke="#56d87b" stroke-width="2" points="62,-24 62,-12 "/>
<path fill="none" stroke="#56d87b" stroke-width="2" d="M62,-12C62,-6 68,-1.61846e-14 74,-1.46056e-14"/>
<polyline fill="none" stroke="#56d87b" stroke-width="2" points="74,-1.46056e-14 104,-6.71068e-15 "/>
<path fill="none" stroke="#56d87b" stroke-width="2" d="M104,-6.71068e-15C110,-5.1317e-15 116,-6 116,-12"/>
<polyline fill="none" stroke="#56d87b" stroke-width="2" points="116,-12 116,-24 "/>
<path fill="none" stroke="#56d87b" stroke-width="2" d="M116,-24C116,-30 110,-36 104,-36"/>
<text text-anchor="middle" x="89" y="-15.5" font-family="sans" font-size="10.00">all</text>
</g>
<!-- 0&#45;&gt;8 -->
<g id="edge18" class="edge"><title>0&#45;&gt;8</title>
<path fill="none" stroke="grey" stroke-width="2" d="M89,-71.8314C89,-64.131 89,-54.9743 89,-46.4166"/>
<polygon fill="grey" stroke="grey" points="92.5001,-46.4132 89,-36.4133 85.5001,-46.4133 92.5001,-46.4132"/>
</g>
<!-- 1 -->
<g id="node2" class="node"><title>1</title>
<polyline fill="none" stroke="#d87d56" stroke-width="2" points="129,-180 49,-180 "/>
<path fill="none" stroke="#d87d56" stroke-width="2" d="M49,-180C43,-180 37,-174 37,-168"/>
<polyline fill="none" stroke="#d87d56" stroke-width="2" points="37,-168 37,-156 "/>
<path fill="none" stroke="#d87d56" stroke-width="2" d="M37,-156C37,-150 43,-144 49,-144"/>
<polyline fill="none" stroke="#d87d56" stroke-width="2" points="49,-144 129,-144 "/>
<path fill="none" stroke="#d87d56" stroke-width="2" d="M129,-144C135,-144 141,-150 141,-156"/>
<polyline fill="none" stroke="#d87d56" stroke-width="2" points="141,-156 141,-168 "/>
<path fill="none" stroke="#d87d56" stroke-width="2" d="M141,-168C141,-174 135,-180 129,-180"/>
<text text-anchor="middle" x="89" y="-159.5" font-family="sans" font-size="10.00">clipping_bedgraph</text>
</g>
<!-- 1&#45;&gt;0 -->
<g id="edge2" class="edge"><title>1&#45;&gt;0</title>
<path fill="none" stroke="grey" stroke-width="2" d="M89,-143.831C89,-136.131 89,-126.974 89,-118.417"/>
<polygon fill="grey" stroke="grey" points="92.5001,-118.413 89,-108.413 85.5001,-118.413 92.5001,-118.413"/>
</g>
<!-- 2 -->
<g id="node3" class="node"><title>2</title>
<polyline fill="none" stroke="#d8a456" stroke-width="2" points="132,-612 46,-612 "/>
<path fill="none" stroke="#d8a456" stroke-width="2" d="M46,-612C40,-612 34,-606 34,-600"/>
<polyline fill="none" stroke="#d8a456" stroke-width="2" points="34,-600 34,-588 "/>
<path fill="none" stroke="#d8a456" stroke-width="2" d="M34,-588C34,-582 40,-576 46,-576"/>
<polyline fill="none" stroke="#d8a456" stroke-width="2" points="46,-576 132,-576 "/>
<path fill="none" stroke="#d8a456" stroke-width="2" d="M132,-576C138,-576 144,-582 144,-588"/>
<polyline fill="none" stroke="#d8a456" stroke-width="2" points="144,-588 144,-600 "/>
<path fill="none" stroke="#d8a456" stroke-width="2" d="M144,-600C144,-606 138,-612 132,-612"/>
<text text-anchor="middle" x="89" y="-591.5" font-family="sans" font-size="10.00">remove_mismatch</text>
</g>
<!-- 10 -->
<g id="node11" class="node"><title>10</title>
<polyline fill="none" stroke="#56d8c9" stroke-width="2" points="121,-540 57,-540 "/>
<path fill="none" stroke="#56d8c9" stroke-width="2" d="M57,-540C51,-540 45,-534 45,-528"/>
<polyline fill="none" stroke="#56d8c9" stroke-width="2" points="45,-528 45,-516 "/>
<path fill="none" stroke="#56d8c9" stroke-width="2" d="M45,-516C45,-510 51,-504 57,-504"/>
<polyline fill="none" stroke="#56d8c9" stroke-width="2" points="57,-504 121,-504 "/>
<path fill="none" stroke="#56d8c9" stroke-width="2" d="M121,-504C127,-504 133,-510 133,-516"/>
<polyline fill="none" stroke="#56d8c9" stroke-width="2" points="133,-516 133,-528 "/>
<path fill="none" stroke="#56d8c9" stroke-width="2" d="M133,-528C133,-534 127,-540 121,-540"/>
<text text-anchor="middle" x="89" y="-519.5" font-family="sans" font-size="10.00">samtools_sort</text>
</g>
<!-- 2&#45;&gt;10 -->
<g id="edge22" class="edge"><title>2&#45;&gt;10</title>
<path fill="none" stroke="grey" stroke-width="2" d="M89,-575.831C89,-568.131 89,-558.974 89,-550.417"/>
<polygon fill="grey" stroke="grey" points="92.5001,-550.413 89,-540.413 85.5001,-550.413 92.5001,-550.413"/>
</g>
<!-- 3 -->
<g id="node4" class="node"><title>3</title>
<polyline fill="none" stroke="#d8c356" stroke-width="2" points="120,-396 58,-396 "/>
<path fill="none" stroke="#d8c356" stroke-width="2" d="M58,-396C52,-396 46,-390 46,-384"/>
<polyline fill="none" stroke="#d8c356" stroke-width="2" points="46,-384 46,-372 "/>
<path fill="none" stroke="#d8c356" stroke-width="2" d="M46,-372C46,-366 52,-360 58,-360"/>
<polyline fill="none" stroke="#d8c356" stroke-width="2" points="58,-360 120,-360 "/>
<path fill="none" stroke="#d8c356" stroke-width="2" d="M120,-360C126,-360 132,-366 132,-372"/>
<polyline fill="none" stroke="#d8c356" stroke-width="2" points="132,-372 132,-384 "/>
<path fill="none" stroke="#d8c356" stroke-width="2" d="M132,-384C132,-390 126,-396 120,-396"/>
<text text-anchor="middle" x="89" y="-375.5" font-family="sans" font-size="10.00">macs2_bigwig</text>
</g>
<!-- 5 -->
<g id="node6" class="node"><title>5</title>
<polyline fill="none" stroke="#9fd856" stroke-width="2" points="160,-324 18,-324 "/>
<path fill="none" stroke="#9fd856" stroke-width="2" d="M18,-324C12,-324 6,-318 6,-312"/>
<polyline fill="none" stroke="#9fd856" stroke-width="2" points="6,-312 6,-300 "/>
<path fill="none" stroke="#9fd856" stroke-width="2" d="M6,-300C6,-294 12,-288 18,-288"/>
<polyline fill="none" stroke="#9fd856" stroke-width="2" points="18,-288 160,-288 "/>
<path fill="none" stroke="#9fd856" stroke-width="2" d="M160,-288C166,-288 172,-294 172,-300"/>
<polyline fill="none" stroke="#9fd856" stroke-width="2" points="172,-300 172,-312 "/>
<path fill="none" stroke="#9fd856" stroke-width="2" d="M172,-312C172,-318 166,-324 160,-324"/>
<text text-anchor="middle" x="89" y="-303.5" font-family="sans" font-size="10.00">removing_weird_chromosome</text>
</g>
<!-- 3&#45;&gt;5 -->
<g id="edge12" class="edge"><title>3&#45;&gt;5</title>
<path fill="none" stroke="grey" stroke-width="2" d="M89,-359.831C89,-352.131 89,-342.974 89,-334.417"/>
<polygon fill="grey" stroke="grey" points="92.5001,-334.413 89,-324.413 85.5001,-334.413 92.5001,-334.413"/>
</g>
<!-- 4 -->
<g id="node5" class="node"><title>4</title>
<polyline fill="none" stroke="#c6d856" stroke-width="2" points="105,-756 73,-756 "/>
<path fill="none" stroke="#c6d856" stroke-width="2" d="M73,-756C67,-756 61,-750 61,-744"/>
<polyline fill="none" stroke="#c6d856" stroke-width="2" points="61,-744 61,-732 "/>
<path fill="none" stroke="#c6d856" stroke-width="2" d="M61,-732C61,-726 67,-720 73,-720"/>
<polyline fill="none" stroke="#c6d856" stroke-width="2" points="73,-720 105,-720 "/>
<path fill="none" stroke="#c6d856" stroke-width="2" d="M105,-720C111,-720 117,-726 117,-732"/>
<polyline fill="none" stroke="#c6d856" stroke-width="2" points="117,-732 117,-744 "/>
<path fill="none" stroke="#c6d856" stroke-width="2" d="M117,-744C117,-750 111,-756 105,-756"/>
<text text-anchor="middle" x="89" y="-735.5" font-family="sans" font-size="10.00">bowtie2</text>
</g>
<!-- 9 -->
<g id="node10" class="node"><title>9</title>
<polyline fill="none" stroke="#56d8a2" stroke-width="2" points="117,-684 61,-684 "/>
<path fill="none" stroke="#56d8a2" stroke-width="2" d="M61,-684C55,-684 49,-678 49,-672"/>
<polyline fill="none" stroke="#56d8a2" stroke-width="2" points="49,-672 49,-660 "/>
<path fill="none" stroke="#56d8a2" stroke-width="2" d="M49,-660C49,-654 55,-648 61,-648"/>
<polyline fill="none" stroke="#56d8a2" stroke-width="2" points="61,-648 117,-648 "/>
<path fill="none" stroke="#56d8a2" stroke-width="2" d="M117,-648C123,-648 129,-654 129,-660"/>
<polyline fill="none" stroke="#56d8a2" stroke-width="2" points="129,-660 129,-672 "/>
<path fill="none" stroke="#56d8a2" stroke-width="2" d="M129,-672C129,-678 123,-684 117,-684"/>
<text text-anchor="middle" x="89" y="-663.5" font-family="sans" font-size="10.00">sam_to_bam</text>
</g>
<!-- 4&#45;&gt;9 -->
<g id="edge20" class="edge"><title>4&#45;&gt;9</title>
<path fill="none" stroke="grey" stroke-width="2" d="M89,-719.831C89,-712.131 89,-702.974 89,-694.417"/>
<polygon fill="grey" stroke="grey" points="92.5001,-694.413 89,-684.413 85.5001,-694.413 92.5001,-694.413"/>
</g>
<!-- 7 -->
<g id="node8" class="node"><title>7</title>
<polyline fill="none" stroke="#59d856" stroke-width="2" points="121,-252 57,-252 "/>
<path fill="none" stroke="#59d856" stroke-width="2" d="M57,-252C51,-252 45,-246 45,-240"/>
<polyline fill="none" stroke="#59d856" stroke-width="2" points="45,-240 45,-228 "/>
<path fill="none" stroke="#59d856" stroke-width="2" d="M45,-228C45,-222 51,-216 57,-216"/>
<polyline fill="none" stroke="#59d856" stroke-width="2" points="57,-216 121,-216 "/>
<path fill="none" stroke="#59d856" stroke-width="2" d="M121,-216C127,-216 133,-222 133,-228"/>
<polyline fill="none" stroke="#59d856" stroke-width="2" points="133,-228 133,-240 "/>
<path fill="none" stroke="#59d856" stroke-width="2" d="M133,-240C133,-246 127,-252 121,-252"/>
<text text-anchor="middle" x="89" y="-231.5" font-family="sans" font-size="10.00">sort_bedgraph</text>
</g>
<!-- 5&#45;&gt;7 -->
<g id="edge16" class="edge"><title>5&#45;&gt;7</title>
<path fill="none" stroke="grey" stroke-width="2" d="M89,-287.831C89,-280.131 89,-270.974 89,-262.417"/>
<polygon fill="grey" stroke="grey" points="92.5001,-262.413 89,-252.413 85.5001,-262.413 92.5001,-262.413"/>
</g>
<!-- 6 -->
<g id="node7" class="node"><title>6</title>
<polyline fill="none" stroke="#78d856" stroke-width="2" points="166,-468 12,-468 "/>
<path fill="none" stroke="#78d856" stroke-width="2" d="M12,-468C6,-468 7.10543e-14,-462 5.68434e-14,-456"/>
<polyline fill="none" stroke="#78d856" stroke-width="2" points="5.68434e-14,-456 2.84217e-14,-444 "/>
<path fill="none" stroke="#78d856" stroke-width="2" d="M2.84217e-14,-444C1.42109e-14,-438 6,-432 12,-432"/>
<polyline fill="none" stroke="#78d856" stroke-width="2" points="12,-432 166,-432 "/>
<path fill="none" stroke="#78d856" stroke-width="2" d="M166,-432C172,-432 178,-438 178,-444"/>
<polyline fill="none" stroke="#78d856" stroke-width="2" points="178,-444 178,-456 "/>
<path fill="none" stroke="#78d856" stroke-width="2" d="M178,-456C178,-462 172,-468 166,-468"/>
<text text-anchor="middle" x="89" y="-447.5" font-family="sans" font-size="10.00">samtools_remove_pcr_duplicate</text>
</g>
<!-- 6&#45;&gt;3 -->
<g id="edge8" class="edge"><title>6&#45;&gt;3</title>
<path fill="none" stroke="grey" stroke-width="2" d="M89,-431.831C89,-424.131 89,-414.974 89,-406.417"/>
<polygon fill="grey" stroke="grey" points="92.5001,-406.413 89,-396.413 85.5001,-406.413 92.5001,-406.413"/>
</g>
<!-- 7&#45;&gt;1 -->
<g id="edge4" class="edge"><title>7&#45;&gt;1</title>
<path fill="none" stroke="grey" stroke-width="2" d="M89,-215.831C89,-208.131 89,-198.974 89,-190.417"/>
<polygon fill="grey" stroke="grey" points="92.5001,-190.413 89,-180.413 85.5001,-190.413 92.5001,-190.413"/>
</g>
<!-- 9&#45;&gt;2 -->
<g id="edge6" class="edge"><title>9&#45;&gt;2</title>
<path fill="none" stroke="grey" stroke-width="2" d="M89,-647.831C89,-640.131 89,-630.974 89,-622.417"/>
<polygon fill="grey" stroke="grey" points="92.5001,-622.413 89,-612.413 85.5001,-622.413 92.5001,-622.413"/>
</g>
<!-- 10&#45;&gt;6 -->
<g id="edge14" class="edge"><title>10&#45;&gt;6</title>
<path fill="none" stroke="grey" stroke-width="2" d="M89,-503.831C89,-496.131 89,-486.974 89,-478.417"/>
<polygon fill="grey" stroke="grey" points="92.5001,-478.413 89,-468.413 85.5001,-478.413 92.5001,-478.413"/>
</g>
<!-- 11 -->
<g id="node12" class="node"><title>11</title>
<polyline fill="none" stroke="#56a2d8" stroke-width="2" points="104,-900 74,-900 "/>
<path fill="none" stroke="#56a2d8" stroke-width="2" d="M74,-900C68,-900 62,-894 62,-888"/>
<polyline fill="none" stroke="#56a2d8" stroke-width="2" points="62,-888 62,-876 "/>
<path fill="none" stroke="#56a2d8" stroke-width="2" d="M62,-876C62,-870 68,-864 74,-864"/>
<polyline fill="none" stroke="#56a2d8" stroke-width="2" points="74,-864 104,-864 "/>
<path fill="none" stroke="#56a2d8" stroke-width="2" d="M104,-864C110,-864 116,-870 116,-876"/>
<polyline fill="none" stroke="#56a2d8" stroke-width="2" points="116,-876 116,-888 "/>
<path fill="none" stroke="#56a2d8" stroke-width="2" d="M116,-888C116,-894 110,-900 104,-900"/>
<text text-anchor="middle" x="89" y="-879.5" font-family="sans" font-size="10.00">aria2</text>
</g>
<!-- 12 -->
<g id="node13" class="node"><title>12</title>
<polyline fill="none" stroke="#567bd8" stroke-width="2" points="114,-828 64,-828 "/>
<path fill="none" stroke="#567bd8" stroke-width="2" d="M64,-828C58,-828 52,-822 52,-816"/>
<polyline fill="none" stroke="#567bd8" stroke-width="2" points="52,-816 52,-804 "/>
<path fill="none" stroke="#567bd8" stroke-width="2" d="M52,-804C52,-798 58,-792 64,-792"/>
<polyline fill="none" stroke="#567bd8" stroke-width="2" points="64,-792 114,-792 "/>
<path fill="none" stroke="#567bd8" stroke-width="2" d="M114,-792C120,-792 126,-798 126,-804"/>
<polyline fill="none" stroke="#567bd8" stroke-width="2" points="126,-804 126,-816 "/>
<path fill="none" stroke="#567bd8" stroke-width="2" d="M126,-816C126,-822 120,-828 114,-828"/>
<text text-anchor="middle" x="89" y="-807.5" font-family="sans" font-size="10.00">trim_galore</text>
</g>
<!-- 11&#45;&gt;12 -->
<g id="edge24" class="edge"><title>11&#45;&gt;12</title>
<path fill="none" stroke="grey" stroke-width="2" d="M89,-863.831C89,-856.131 89,-846.974 89,-838.417"/>
<polygon fill="grey" stroke="grey" points="92.5001,-838.413 89,-828.413 85.5001,-838.413 92.5001,-838.413"/>
</g>
<!-- 12&#45;&gt;4 -->
<g id="edge10" class="edge"><title>12&#45;&gt;4</title>
<path fill="none" stroke="grey" stroke-width="2" d="M89,-791.831C89,-784.131 89,-774.974 89,-766.417"/>
<polygon fill="grey" stroke="grey" points="92.5001,-766.413 89,-756.413 85.5001,-766.413 92.5001,-766.413"/>
</g>
</g>
</svg>
